<svg width="144" height="161" viewBox="0 0 144 161" fill="none" xmlns="http://www.w3.org/2000/svg">
<path d="M19.8372 138.496C13.5803 131.39 8.70988 123.178 5.22593 113.861C1.74198 104.543 0 94.9892 0 85.1981C0 73.6699 1.81308 63.1287 5.43923 53.5746C9.06539 44.0204 14.5046 35.2163 21.7569 27.1623C26.734 21.6351 32.9198 16.9765 40.3143 13.1864C47.7088 9.39627 56.4187 6.43526 66.444 4.30334C76.4692 2.17141 87.8098 0.829083 100.466 0.276361C113.122 -0.276361 127.2 6.35364e-07 142.7 1.10544C143.837 18.1609 144.229 33.7555 143.873 47.8894C143.518 62.0233 142.38 74.6964 140.46 85.9088C138.54 97.1211 135.839 106.952 132.355 115.4C128.871 123.849 124.569 130.916 119.45 136.601C112.198 144.655 104.376 150.735 95.9865 154.841C87.5965 158.947 78.6378 161 69.1103 161C59.2983 161 50.304 159.144 42.1274 155.433C33.9508 151.722 26.5207 146.077 19.8372 138.496ZM41.8074 138.496C45.3625 141.181 49.4864 143.234 54.179 144.655C58.8717 146.077 63.8488 146.787 69.1103 146.787C76.647 146.787 83.9704 145.05 91.0805 141.576C98.1906 138.102 104.661 133.048 110.491 126.415C114.331 122.152 117.601 116.585 120.303 109.715C123.005 102.846 125.209 94.7129 126.915 85.3166C128.622 75.9203 129.759 65.3001 130.328 53.4561C130.897 41.6121 130.897 28.5836 130.328 14.3708C116.961 14.0549 104.981 14.2523 94.3867 14.963C83.7926 15.6736 74.4428 16.9765 66.3373 18.8715C58.2318 20.7666 51.2639 23.1748 45.4336 26.0964C39.6033 29.0179 34.8395 32.6106 31.1423 36.8744C25.1698 43.665 20.6193 50.8504 17.4909 58.4306C14.3624 66.0108 12.7982 73.7489 12.7982 81.6449C12.7982 89.2251 14.2558 97.1606 17.1709 105.451C20.0861 113.742 23.6767 120.414 27.9427 125.468C35.4794 109.992 44.5093 96.0947 55.0322 83.7769C65.5552 71.4591 76.7181 61.7469 88.5209 54.6405C76.1493 66.4845 66.124 79.3156 58.4451 93.1336C50.7662 106.952 45.2203 122.073 41.8074 138.496Z" fill="#698269"/>
</svg>
